<svg width="193" height="31" viewBox="0 0 193 31" fill="none" xmlns="http://www.w3.org/2000/svg">
    <g clip-path="url(#clip0)">
        <path d="M60.2363 23.0821C59.8533 23.0845 59.4736 23.0099 59.119 22.8626C58.4058 22.559 57.8377 21.9836 57.5363 21.2594C57.2349 20.5352 57.2242 19.7197 57.5064 18.9875C56.821 20.6656 55.6622 22.0996 54.1764 23.1083C52.6905 24.117 50.9442 24.6554 49.1579 24.6554C47.3715 24.6554 45.6252 24.117 44.1394 23.1083C42.6536 22.0996 41.4948 20.6656 40.8094 18.9875C41.0562 19.7141 41.0217 20.5091 40.7127 21.2107C40.4037 21.9123 39.8436 22.4678 39.1462 22.764C38.4489 23.0603 37.6668 23.0751 36.959 22.8055C36.2513 22.5358 35.6712 22.0019 35.3368 21.3125C36.4803 24.0862 38.4055 26.4532 40.8697 28.1152C43.3339 29.7772 46.2267 30.6597 49.1833 30.6514C52.1399 30.6431 55.0278 29.7444 57.483 28.0686C59.9381 26.3928 61.8505 24.015 62.979 21.2351C62.7528 21.7845 62.3715 22.2532 61.8832 22.5821C61.395 22.9109 60.8218 23.0849 60.2363 23.0821Z" fill="#0D1336" />
        <path d="M82.7995 0.258301H72.7305C71.9459 0.258301 71.1934 0.575381 70.6386 1.13979C70.0837 1.70419 69.772 2.46969 69.772 3.26788C69.772 4.06608 70.0837 4.83157 70.6386 5.39598C71.1934 5.96039 71.9459 6.27747 72.7305 6.27747H82.7995C83.976 6.27746 85.1044 6.75199 85.9375 7.59702C86.7705 8.44205 87.2402 9.58862 87.2436 10.7854C87.2929 10.0196 87.6267 9.30155 88.1773 8.77692C88.7279 8.25229 89.454 7.96037 90.2084 7.96037C90.9628 7.96037 91.689 8.25229 92.2396 8.77692C92.7902 9.30155 93.124 10.0196 93.1733 10.7854C93.1666 7.99106 92.0706 5.31351 90.1259 3.34004C88.1812 1.36657 85.5464 0.258292 82.7995 0.258301Z" fill="#0D1336" />
        <path d="M169.599 22.7979C168.814 22.7979 168.062 22.4808 167.507 21.9164C166.952 21.352 166.64 20.5865 166.64 19.7883V27.9904C166.64 28.7886 166.952 29.5541 167.507 30.1185C168.062 30.6829 168.814 31 169.599 31C170.383 31 171.136 30.6829 171.691 30.1185C172.246 29.5541 172.557 28.7886 172.557 27.9904V19.7883C172.557 20.5865 172.246 21.352 171.691 21.9164C171.136 22.4808 170.383 22.7979 169.599 22.7979Z" fill="#0D1336" />
        <path d="M74.2161 21.3255C73.4315 21.3255 72.679 21.0084 72.1242 20.444C71.5694 19.8796 71.2577 19.1141 71.2577 18.3159C71.2577 17.5177 71.5694 16.7522 72.1242 16.1878C72.679 15.6234 73.4315 15.3063 74.2161 15.3063C72.9998 15.3015 71.8286 15.7743 70.9464 16.626C70.0641 17.4778 69.5389 18.6429 69.48 19.8788C69.4734 19.9605 69.4734 20.0426 69.48 20.1242V27.9517C69.5293 28.7175 69.8631 29.4356 70.4137 29.9602C70.9643 30.4848 71.6905 30.7767 72.4449 30.7767C73.1993 30.7767 73.9254 30.4848 74.476 29.9602C75.0266 29.4356 75.3604 28.7175 75.4097 27.9517V21.3255H74.2161Z" fill="#0D1336" />
        <path d="M124.917 19.375C124.59 19.1612 124.225 19.0151 123.843 18.9448C123.46 18.8746 123.068 18.8816 122.688 18.9656C122.309 19.0496 121.949 19.2088 121.63 19.4342C121.311 19.6595 121.038 19.9466 120.828 20.2791C119.934 21.695 118.676 22.8343 117.189 23.5728C115.703 24.3114 114.046 24.6209 112.398 24.4677C110.751 24.3145 109.177 23.7045 107.847 22.704C106.516 21.7036 105.482 20.351 104.855 18.7937C105.002 19.1601 105.078 19.5525 105.076 19.9484C105.075 20.3443 104.997 20.7361 104.846 21.1013C104.696 21.4666 104.476 21.7981 104.2 22.077C103.924 22.3559 103.596 22.5767 103.236 22.7268C102.876 22.8769 102.49 22.9534 102.101 22.9519C101.712 22.9504 101.327 22.8709 100.968 22.718C100.608 22.565 100.283 22.3417 100.008 22.0606C99.7343 21.7796 99.5172 21.4463 99.3696 21.08C100.468 23.7913 102.31 26.1236 104.677 27.798C107.043 29.4724 109.834 30.4181 112.715 30.522H113.21C115.717 30.516 118.183 29.8738 120.385 28.6536C122.586 27.4334 124.454 25.6738 125.818 23.5341C126.028 23.2009 126.171 22.8289 126.239 22.4395C126.307 22.05 126.299 21.6507 126.215 21.2644C126.131 20.8781 125.974 20.5124 125.751 20.1882C125.528 19.864 125.245 19.5876 124.917 19.375Z" fill="#0D1336" />
        <path d="M157.676 22.8237C157.302 22.8253 156.932 22.7552 156.584 22.6171C155.859 22.3261 155.278 21.7551 154.966 21.0289C154.654 20.3027 154.638 19.4804 154.921 18.7421C154.251 20.4521 153.093 21.9185 151.596 22.9516C150.098 23.9847 148.331 24.5369 146.521 24.5369C144.712 24.5369 142.944 23.9847 141.447 22.9516C139.949 21.9185 138.791 20.4521 138.122 18.7421C138.402 19.4791 138.386 20.2985 138.077 21.0235C137.768 21.7485 137.191 22.3209 136.471 22.6171C136.119 22.758 135.745 22.8324 135.367 22.8366C134.774 22.8343 134.195 22.6525 133.705 22.3143C133.214 21.9762 132.833 21.497 132.611 20.9379C133.727 23.7674 135.651 26.1913 138.136 27.8959C140.62 29.6005 143.55 30.5073 146.547 30.4989C149.544 30.4906 152.469 29.5675 154.945 27.8491C157.42 26.1307 159.331 23.6961 160.431 20.8604C160.222 21.4336 159.847 21.9285 159.355 22.2792C158.862 22.6299 158.277 22.8199 157.676 22.8237Z" fill="#0D1336" />
        <path d="M190.041 2.77207e-05C189.652 -0.00167319 189.266 0.0749167 188.905 0.225401C188.545 0.375885 188.217 0.597299 187.941 0.876935C187.665 1.15657 187.446 1.48892 187.297 1.8549C187.147 2.22089 187.07 2.6133 187.07 3.00961V19.7238C187.12 18.958 187.453 18.2399 188.004 17.7153C188.555 17.1907 189.281 16.8988 190.035 16.8988C190.79 16.8988 191.516 17.1907 192.066 17.7153C192.617 18.2399 192.951 18.958 193 19.7238V3.00961C193 2.21142 192.688 1.44592 192.133 0.881514C191.579 0.317108 190.826 2.77207e-05 190.041 2.77207e-05Z" fill="#0D1336" />
        <path d="M146.502 0.154972C147.287 0.154972 148.039 0.472052 148.594 1.03646C149.149 1.60087 149.461 2.36636 149.461 3.16456C149.461 3.96275 149.149 4.72825 148.594 5.29265C148.039 5.85706 147.287 6.17414 146.502 6.17414C148.898 6.17414 151.195 7.1413 152.89 8.86321C154.585 10.5851 155.539 12.921 155.543 15.3579C155.54 16.5067 155.329 17.6452 154.921 18.7162C155.207 17.9728 155.772 17.3756 156.491 17.0558C157.21 16.7361 158.024 16.72 158.755 17.0112C159.486 17.3024 160.073 17.877 160.387 18.6085C160.702 19.3401 160.717 20.1687 160.431 20.9121C161.325 18.6028 161.65 16.1058 161.376 13.6395C161.102 11.1733 160.238 8.81282 158.86 6.76472C157.482 4.71662 155.631 3.04324 153.47 1.89098C151.31 0.738711 148.904 0.142662 146.464 0.154972H146.502Z" fill="#0D1336" />
        <path d="M36.9366 17.36C37.2951 17.2072 37.6797 17.1278 38.0684 17.1262C38.457 17.1247 38.8422 17.201 39.2018 17.351C39.5615 17.5009 39.8886 17.7215 40.1644 18.0001C40.4402 18.2787 40.6594 18.6098 40.8093 18.9746C40.3533 17.8746 40.116 16.6937 40.111 15.5C40.1126 14.294 40.3478 13.1001 40.803 11.9865C41.2583 10.8729 41.9246 9.86147 42.7641 9.00988C43.6036 8.15829 44.5998 7.48324 45.6957 7.02328C46.7917 6.56332 47.9659 6.32746 49.1515 6.32916C48.3669 6.32916 47.6144 6.01208 47.0595 5.44767C46.5047 4.88327 46.193 4.11777 46.193 3.31957C46.193 2.52138 46.5047 1.75588 47.0595 1.19148C47.6144 0.627072 48.3669 0.309992 49.1515 0.309992C46.6879 0.303236 44.2609 0.916676 42.0869 2.09563C39.9129 3.27458 38.0594 4.98241 36.6917 7.06689C35.3239 9.15136 34.4845 11.5477 34.248 14.0423C34.0116 16.5369 34.3857 19.0523 35.3368 21.3642C35.1788 20.995 35.0949 20.5974 35.09 20.1948C35.0852 19.7922 35.1594 19.3926 35.3085 19.0196C35.4575 18.6466 35.6783 18.3077 35.9579 18.0227C36.2375 17.7377 36.5703 17.5124 36.9366 17.36Z" fill="#0D1336" />
        <path d="M26.0677 23.1725C25.283 23.1725 24.5305 22.8555 23.9757 22.2911C23.4209 21.7267 23.1092 20.9612 23.1092 20.163V27.7967C23.1092 28.5949 23.4209 29.3604 23.9757 29.9248C24.5305 30.4892 25.283 30.8063 26.0677 30.8063C26.8523 30.8063 27.6048 30.4892 28.1596 29.9248C28.7145 29.3604 29.0262 28.5949 29.0262 27.7967V20.163C29.0262 20.9612 28.7145 21.7267 28.1596 22.2911C27.6048 22.8555 26.8523 23.1725 26.0677 23.1725Z" fill="#0D1336" />
        <path d="M11.6054 15.5646C11.5943 14.8299 11.8456 14.116 12.3126 13.5554C12.7796 12.9948 13.4306 12.6256 14.1449 12.5163L14.5131 11.7929L10.0563 3.15168C9.51166 2.07063 8.6214 1.21046 7.53209 0.712744C6.44278 0.215027 5.21935 0.109433 4.06318 0.413343C2.89714 0.68497 1.85782 1.35492 1.11846 2.31154C0.379101 3.26815 -0.0156428 4.45364 2.16228e-05 5.67043V20.2275C0.0493121 19.4617 0.383113 18.7437 0.933707 18.219C1.4843 17.6944 2.21046 17.4025 2.96486 17.4025C3.71926 17.4025 4.44541 17.6944 4.99601 18.219C5.5466 18.7437 5.8804 19.4617 5.92969 20.2275V8.11168L9.7389 15.6033C10.1938 16.483 10.8769 17.219 11.7142 17.7314C12.5514 18.2438 13.5107 18.5129 14.4877 18.5096C13.7282 18.4867 13.0062 18.1687 12.4701 17.6209C11.934 17.0732 11.6246 16.3373 11.6054 15.5646Z" fill="#0D1336" />
        <path d="M2.95851 23.25C2.56893 23.25 2.18318 23.1718 1.82341 23.0197C1.46364 22.8677 1.13693 22.6448 0.862046 22.364C0.587158 22.0832 0.369503 21.7499 0.221574 21.3832C0.0736447 21.0166 -0.00164479 20.6238 2.72501e-05 20.2275V27.7967C0.0493177 28.5625 0.383118 29.2805 0.933712 29.8052C1.48431 30.3298 2.21046 30.6217 2.96486 30.6217C3.71926 30.6217 4.44542 30.3298 4.99601 29.8052C5.54661 29.2805 5.88041 28.5625 5.9297 27.7967V20.2275C5.93138 20.6249 5.85567 21.0187 5.70695 21.3862C5.55823 21.7537 5.33944 22.0876 5.06321 22.3686C4.78697 22.6496 4.45876 22.8722 4.09752 23.0234C3.73628 23.1747 3.34917 23.2517 2.95851 23.25Z" fill="#0D1336" />
        <path d="M24.9757 0.413315C23.8286 0.123103 22.6187 0.235653 21.5424 0.732708C20.4661 1.22976 19.5864 2.08217 19.046 3.15165L14.5131 11.7929L14.8813 12.5033C15.6365 12.5743 16.336 12.9375 16.8355 13.5181C17.335 14.0986 17.5962 14.8522 17.5652 15.623C17.5343 16.3939 17.2135 17.1232 16.6691 17.6604C16.1248 18.1975 15.3984 18.5015 14.64 18.5096C15.5908 18.4837 16.5177 18.2009 17.3254 17.6901C18.1332 17.1794 18.7928 16.4591 19.2365 15.6033L23.0457 8.11165V20.1629C23.0457 19.3647 23.3574 18.5992 23.9122 18.0348C24.467 17.4704 25.2195 17.1533 26.0042 17.1533C26.7888 17.1533 27.5413 17.4704 28.0961 18.0348C28.651 18.5992 28.9627 19.3647 28.9627 20.1629V5.6704C28.98 4.46472 28.5952 3.28864 27.8712 2.33394C27.1471 1.37924 26.1265 0.702229 24.9757 0.413315Z" fill="#0D1336" />
        <path d="M180.658 17.1404C181.34 16.7426 182.15 16.6362 182.909 16.8444C183.668 17.0526 184.315 17.5585 184.709 18.2512L176.036 2.93208C175.461 1.98628 174.601 1.25461 173.584 0.845833C172.567 0.43706 171.448 0.373012 170.392 0.66321C169.337 0.953408 168.402 1.58236 167.726 2.45656C167.05 3.33076 166.669 4.40354 166.64 5.51541V19.7883C166.64 18.9901 166.952 18.2246 167.507 17.6602C168.062 17.0958 168.814 16.7787 169.599 16.7787C170.383 16.7787 171.136 17.0958 171.691 17.6602C172.246 18.2246 172.557 18.9901 172.557 19.7883V8.86083L179.566 21.2479C179.176 20.5559 179.071 19.7344 179.276 18.9642C179.481 18.1939 179.978 17.5379 180.658 17.1404Z" fill="#0D1336" />
        <path d="M49.1515 0.245361C49.9361 0.245361 50.6886 0.562441 51.2435 1.12685C51.7983 1.69125 52.11 2.45675 52.11 3.25494C52.11 4.05314 51.7983 4.81863 51.2435 5.38304C50.6886 5.94745 49.9361 6.26453 49.1515 6.26453C50.6324 6.26484 52.0905 6.63574 53.3972 7.34453C54.7039 8.05333 55.8192 9.07824 56.6447 10.3289C57.4702 11.5796 57.9806 13.0177 58.1308 14.5164C58.2811 16.0151 58.0666 17.5284 57.5064 18.9229C57.8061 18.1846 58.3818 17.5977 59.1069 17.2913C59.832 16.9849 60.647 16.984 61.3727 17.2889C62.0984 17.5938 62.6753 18.1795 62.9766 18.9171C63.2778 19.6547 63.2786 20.4838 62.9789 21.222C63.7188 19.4079 64.1027 17.464 64.109 15.4999C64.114 13.4985 63.7308 11.5157 62.9814 9.6652C62.2319 7.81465 61.131 6.13269 59.7415 4.71567C58.3521 3.29864 56.7015 2.17438 54.8843 1.40729C53.0671 0.640204 51.1189 0.245355 49.1515 0.245361Z" fill="#0D1336" />
        <path d="M90.1513 13.795C89.3667 13.795 88.6142 13.4779 88.0594 12.9135C87.5045 12.3491 87.1928 11.5836 87.1928 10.7854C87.1928 11.9844 86.7246 13.1343 85.8912 13.9821C85.0578 14.8299 83.9274 15.3062 82.7488 15.3062H74.2161C74.898 15.3037 75.5597 15.5409 76.0895 15.9776C76.6192 16.4143 76.9844 17.0237 77.1233 17.7028C77.2622 18.3819 77.1663 19.0889 76.8517 19.7043C76.5371 20.3197 76.0232 20.8056 75.397 21.08V21.3254H82.7995C85.5476 21.322 88.1823 20.2108 90.1267 18.2353C92.0711 16.2598 93.1666 13.5809 93.1733 10.7854C93.1734 11.1861 93.0948 11.5828 92.9422 11.9522C92.7896 12.3216 92.5659 12.6563 92.2845 12.9367C92.003 13.217 91.6693 13.4373 91.303 13.5847C90.9367 13.7321 90.5451 13.8036 90.1513 13.795Z" fill="#0D1336" />
        <path d="M190.041 22.7333C189.652 22.735 189.266 22.6584 188.905 22.5079C188.545 22.3574 188.217 22.136 187.941 21.8564C187.665 21.5768 187.446 21.2444 187.297 20.8784C187.147 20.5124 187.07 20.12 187.07 19.7237V22.4362L184.709 18.2512C185.099 18.9449 185.203 19.7681 184.997 20.5396C184.791 21.3111 184.292 21.9678 183.61 22.3652C182.928 22.7626 182.119 22.8681 181.361 22.6586C180.602 22.449 179.957 21.9416 179.566 21.2479L183.604 28.4166C184.032 29.1996 184.658 29.852 185.417 30.3062C186.176 30.7605 187.04 31 187.921 31C188.371 31.0007 188.818 30.9443 189.254 30.8321C190.341 30.5499 191.302 29.9028 191.982 28.9955C192.662 28.0882 193.02 26.9739 193 25.8333V19.7237C193 20.1189 192.923 20.5103 192.775 20.8754C192.626 21.2406 192.408 21.5724 192.133 21.8518C191.859 22.1313 191.533 22.353 191.174 22.5042C190.815 22.6555 190.43 22.7333 190.041 22.7333Z" fill="#0D1336" />
        <path d="M134.262 17.0759C134.987 16.7979 135.79 16.8177 136.501 17.1311C137.212 17.4445 137.775 18.0269 138.071 18.7551C137.642 17.6757 137.422 16.5222 137.424 15.358C137.427 12.9233 138.379 10.5894 140.072 8.86785C141.764 7.14631 144.058 6.17764 146.451 6.17422C145.667 6.17422 144.914 5.85714 144.359 5.29274C143.805 4.72833 143.493 3.96283 143.493 3.16464C143.493 2.36645 143.805 1.60095 144.359 1.03654C144.914 0.472136 145.667 0.155056 146.451 0.155056C144.009 0.150386 141.602 0.755474 139.442 1.91726C137.283 3.07905 135.437 4.76205 134.066 6.81868C132.694 8.87532 131.84 11.2428 131.578 13.7134C131.315 16.1841 131.653 18.6825 132.561 20.9896C132.279 20.2409 132.299 19.4091 132.618 18.6759C132.937 17.9426 133.528 17.3674 134.262 17.0759Z" fill="#0D1336" />
        <path d="M100.995 17.1792C101.715 16.8921 102.516 16.903 103.228 17.2096C103.94 17.5162 104.506 18.0941 104.804 18.8196C104.115 17.0961 103.956 15.2006 104.349 13.3834C104.741 11.5662 105.666 9.91268 107.001 8.64126C107.966 7.721 109.118 7.02707 110.375 6.60831C111.632 6.18955 112.964 6.05612 114.277 6.21742C115.59 6.37872 116.853 6.83083 117.976 7.54193C119.099 8.25303 120.055 9.20585 120.777 10.3333C121.246 10.9003 121.904 11.2723 122.624 11.3787C123.345 11.4851 124.079 11.3184 124.687 10.9104C125.295 10.5023 125.735 9.88131 125.922 9.16533C126.11 8.44935 126.032 7.68827 125.704 7.02668C124.39 4.9954 122.618 3.31309 120.535 2.12C118.452 0.926911 116.119 0.257621 113.73 0.167928C111.236 0.0731388 108.758 0.616552 106.523 1.74839C104.289 2.88024 102.369 4.56433 100.94 6.64642C99.5114 8.72851 98.6189 11.142 98.3445 13.666C98.07 16.1899 98.4225 18.7435 99.3696 21.0929C99.0764 20.3546 99.0828 19.5281 99.3875 18.7945C99.6921 18.0609 100.27 17.4801 100.995 17.1792Z" fill="#0D1336" />
        <path d="M169.599 22.798C171.233 22.798 172.557 21.4505 172.557 19.7884C172.557 18.1262 171.233 16.7788 169.599 16.7788C167.965 16.7788 166.64 18.1262 166.64 19.7884C166.64 21.4505 167.965 22.798 169.599 22.798Z" fill="#0D1336" />
        <path d="M26.0677 23.1725C27.7016 23.1725 29.0262 21.8251 29.0262 20.1629C29.0262 18.5008 27.7016 17.1533 26.0677 17.1533C24.4338 17.1533 23.1092 18.5008 23.1092 20.1629C23.1092 21.8251 24.4338 23.1725 26.0677 23.1725Z" fill="#0D1336" />
        <path d="M61.3664 17.2954C61.0056 17.1372 60.6175 17.0536 60.2247 17.0496C59.8318 17.0456 59.4421 17.1212 59.0783 17.272C58.7145 17.4229 58.3839 17.6459 58.1058 17.9281C57.8276 18.2103 57.6075 18.546 57.4582 18.9157C57.309 19.2854 57.2336 19.6816 57.2365 20.0812C57.2394 20.4809 57.3205 20.8759 57.4751 21.2433C57.6297 21.6107 57.8547 21.9431 58.1369 22.2211C58.4192 22.4991 58.753 22.7171 59.1189 22.8625C59.4735 23.0098 59.8533 23.0845 60.2363 23.0821C60.9191 23.0797 61.5802 22.8371 62.1072 22.3955C62.6343 21.9538 62.9949 21.3403 63.128 20.6589C63.261 19.9776 63.1583 19.2704 62.8372 18.6574C62.5161 18.0443 61.9965 17.5631 61.3664 17.2954Z" fill="#0D1336" />
        <path d="M90.2021 13.795C91.8361 13.795 93.1606 12.4476 93.1606 10.7855C93.1606 9.12332 91.8361 7.77588 90.2021 7.77588C88.5682 7.77588 87.2437 9.12332 87.2437 10.7855C87.2437 12.4476 88.5682 13.795 90.2021 13.795Z" fill="#0D1336" />
        <path d="M183.617 22.3588C184.122 22.0609 184.53 21.6173 184.789 21.0839C185.047 20.5506 185.144 19.9513 185.068 19.3619C184.992 18.7724 184.745 18.219 184.36 17.7717C183.976 17.3243 183.469 17.003 182.905 16.8483C182.34 16.6935 181.744 16.7122 181.19 16.9021C180.636 17.092 180.15 17.4445 179.793 17.9151C179.435 18.3858 179.223 18.9535 179.183 19.5466C179.143 20.1398 179.276 20.7318 179.566 21.2479C179.76 21.5922 180.018 21.8942 180.327 22.1365C180.635 22.3788 180.988 22.5567 181.364 22.6599C181.741 22.7632 182.134 22.7897 182.52 22.738C182.907 22.6863 183.279 22.5574 183.617 22.3588Z" fill="#0D1336" />
        <path d="M77.1746 18.3158C77.1771 17.7169 77.0047 17.1308 76.6791 16.6317C76.3536 16.1327 75.8897 15.7433 75.3463 15.5129C74.8029 15.2826 74.2044 15.2216 73.6269 15.3378C73.0494 15.4541 72.5188 15.7422 72.1025 16.1657C71.6862 16.5891 71.403 17.1289 71.2887 17.7164C71.1745 18.3039 71.2344 18.9127 71.4608 19.4655C71.6873 20.0183 72.0701 20.4902 72.5606 20.8214C73.0512 21.1525 73.6274 21.3279 74.2161 21.3254H75.397V21.08C75.9249 20.8443 76.3741 20.4576 76.6898 19.9667C77.0054 19.4759 77.1739 18.9023 77.1746 18.3158Z" fill="#0D1336" />
        <path d="M102.112 22.9788C102.598 22.977 103.076 22.8541 103.505 22.6207C103.933 22.3873 104.299 22.0506 104.569 21.6401C104.84 21.2295 105.008 20.7577 105.057 20.266C105.107 19.7743 105.038 19.2776 104.855 18.8196C104.559 18.0796 103.985 17.4897 103.261 17.1797C102.538 16.8696 101.722 16.8648 100.995 17.1663C100.268 17.4677 99.6876 18.0508 99.3828 18.7872C99.078 19.5236 99.0733 20.353 99.3696 21.0929C99.5913 21.6486 99.9705 22.1246 100.459 22.4604C100.947 22.7962 101.523 22.9767 102.112 22.9788Z" fill="#0D1336" />
        <path d="M135.367 22.8883C135.745 22.8841 136.119 22.8096 136.471 22.6687C137.153 22.3881 137.708 21.859 138.027 21.1848C138.347 20.5105 138.408 19.7394 138.198 19.022C137.989 18.3045 137.524 17.6922 136.895 17.3045C136.265 16.9168 135.517 16.7815 134.795 16.925C134.073 17.0685 133.429 17.4806 132.989 18.0808C132.55 18.6809 132.346 19.4262 132.417 20.171C132.489 20.9159 132.831 21.607 133.376 22.1094C133.921 22.6118 134.631 22.8895 135.367 22.8883Z" fill="#0D1336" />
        <path d="M190.041 22.7333C191.675 22.7333 193 21.3858 193 19.7237C193 18.0615 191.675 16.7141 190.041 16.7141C188.408 16.7141 187.083 18.0615 187.083 19.7237C187.083 21.3858 188.408 22.7333 190.041 22.7333Z" fill="#0D1336" />
        <path d="M146.502 6.1742C148.136 6.1742 149.461 4.82676 149.461 3.16461C149.461 1.50247 148.136 0.155029 146.502 0.155029C144.868 0.155029 143.544 1.50247 143.544 3.16461C143.544 4.82676 144.868 6.1742 146.502 6.1742Z" fill="#0D1336" />
        <path d="M158.717 17.0113C157.989 16.7279 157.181 16.748 156.468 17.0672C155.755 17.3865 155.194 17.979 154.908 18.7163C154.625 19.4546 154.641 20.2769 154.953 21.0031C155.265 21.7293 155.847 22.3003 156.571 22.5913C157.299 22.8711 158.106 22.8493 158.818 22.5305C159.531 22.2117 160.092 21.6213 160.38 20.8863C160.66 20.1476 160.642 19.3268 160.33 18.6015C160.019 17.8763 159.44 17.305 158.717 17.0113Z" fill="#0D1336" />
        <path d="M38.0921 23.1467C38.7267 23.1437 39.3435 22.9332 39.8515 22.5463C40.3595 22.1594 40.7317 21.6165 40.9132 20.998C41.0948 20.3794 41.0759 19.7178 40.8595 19.1109C40.6431 18.504 40.2407 17.984 39.7115 17.6277C39.1824 17.2713 38.5546 17.0975 37.9209 17.1318C37.2872 17.1662 36.6812 17.4069 36.1922 17.8185C35.7033 18.2301 35.3575 18.7906 35.2057 19.4175C35.054 20.0443 35.1044 20.7042 35.3495 21.2996C35.5784 21.847 35.9604 22.3139 36.448 22.6423C36.9356 22.9707 37.5073 23.1461 38.0921 23.1467Z" fill="#0D1336" />
        <path d="M49.1515 6.26453C50.7855 6.26453 52.11 4.91709 52.11 3.25494C52.11 1.5928 50.7855 0.245361 49.1515 0.245361C47.5176 0.245361 46.1931 1.5928 46.1931 3.25494C46.1931 4.91709 47.5176 6.26453 49.1515 6.26453Z" fill="#0D1336" />
        <path d="M2.95849 23.2371C4.59241 23.2371 5.91697 21.8896 5.91697 20.2275C5.91697 18.5653 4.59241 17.2179 2.95849 17.2179C1.32456 17.2179 0 18.5653 0 20.2275C0 21.8896 1.32456 23.2371 2.95849 23.2371Z" fill="#0D1336" />
        <path d="M17.5351 15.5C17.5176 14.767 17.2388 14.0654 16.7506 13.526C16.2624 12.9866 15.598 12.6461 14.8813 12.568L14.5131 11.8575L14.1449 12.5809C13.3996 12.6808 12.7197 13.0656 12.2433 13.6571C11.7669 14.2485 11.5296 15.0023 11.5797 15.7653C11.6298 16.5282 11.9635 17.2432 12.5131 17.7649C13.0626 18.2866 13.7868 18.576 14.5385 18.5742H14.6401C15.4237 18.5539 16.1676 18.2194 16.7099 17.6436C17.2521 17.0678 17.5487 16.2973 17.5351 15.5Z" fill="#0D1336" />
    </g>
    <defs>
        <clipPath id="clip0">
            <rect width="193" height="31" fill="white" />
        </clipPath>
    </defs>
</svg>
    